<?xml version="1.0" encoding="UTF-8" standalone="no"?>
<svg
   xmlns:dc="http://purl.org/dc/elements/1.1/"
   xmlns:cc="http://creativecommons.org/ns#"
   xmlns:rdf="http://www.w3.org/1999/02/22-rdf-syntax-ns#"
   xmlns:svg="http://www.w3.org/2000/svg"
   xmlns="http://www.w3.org/2000/svg"
   viewBox="0 0 6485.4268 5421.4268"
   height="5421.4268"
   width="6485.4268"
   xml:space="preserve"
   id="svg2"
   version="1.1"><metadata
     id="metadata8"><rdf:RDF><cc:Work
         rdf:about=""><dc:format>image/svg+xml</dc:format><dc:type
           rdf:resource="http://purl.org/dc/dcmitype/StillImage" /></cc:Work></rdf:RDF></metadata><defs
     id="defs6" /><g
     transform="matrix(1.3333333,0,0,-1.3333333,0,5421.4267)"
     id="g10"><g
       transform="scale(0.1)"
       id="g12"><g
         transform="scale(1.97207)"
         id="g14"><path
           id="path16"
           style="fill:#100f0d;fill-opacity:1;fill-rule:nonzero;stroke:none"
           d="m 5631.65,11637.9 828.68,21.7 -230.62,144.2 201.82,4316 50.45,36.1 -900.73,-14.4 v -7.3 l 136.86,-100.8 36.06,-2277 -1145.68,-144.1 28.92,2053.6 v 57.5 l 72.08,72.1 -850.3,-7.1 100.84,-65 v -43.1 l 151.41,-4272.8 -266.63,-309.9 14.38,-21.7 922.36,-50.4 v 7.3 l -216.2,216.2 28.76,1678.8 1181.71,396.3 43.3,-1426.6 z m 742.22,237.9 216.22,-129.7 43.1,-230.6 -1116.74,-21.5 -43.31,172.9 201.87,273.7 -43.36,1181.7 -893.4,-295.4 -28.76,-1520.4 230.59,-230.6 -43.31,-194.5 -1138.41,50.6 -86.45,194.5 295.39,338.6 -151.42,4215.2 v -28.8 l -107.93,71.9 v 209.1 l 1109.64,7.2 57.52,-180.2 -93.56,-93.6 -28.92,-1895.1 857.57,115.3 -36.05,2075.2 -137.01,100.8 -14.4,223.5 1225.01,14.4 36.05,-172.9 -108.11,-79.3 -201.82,-4172" /></g><g
         transform="scale(1.95201)"
         id="g18"><path
           id="path20"
           style="fill:#ef2765;fill-opacity:1;fill-rule:nonzero;stroke:none"
           d="m 8885.16,12827.7 -320.29,1499.6 -225.61,-1303.1 z m -706.04,94.6 371.26,2176.7 538.52,-2504.3 z m -203.9,-698.8 1164.81,7.3 160.14,-698.9 -102.05,-138.2 647.95,14.5 -196.57,116.5 -545.9,4418.6 276.54,211.1 -1601.48,-29.1 v -7.3 l 356.71,-196.6 -677,-4593.2 -232.94,-160.2 749.79,14.6 -189.19,232.9 z m 1805.38,-611.4 276.6,-160.1 -21.9,-189.4 -989.95,-14.5 -43.75,131.1 138.43,182 -116.55,524 -931.86,-7.4 -145.44,-633.2 211.06,-262 -50.92,-145.7 -1041.08,-14.5 -36.37,196.6 298.41,196.5 647.94,4433.3 -342.16,181.8 14.5,240.3 1834.47,29.1 72.8,-189.2 -291.09,-225.8 516.86,-4272.9" /></g><g
         transform="scale(1.91743)"
         id="g22"><path
           id="path24"
           style="fill:#100f0d;fill-opacity:1;fill-rule:nonzero;stroke:none"
           d="m 12691.4,14055.7 c 163,200.1 244.6,428.6 244.6,685.5 0,192.8 -44.5,358.2 -133.5,496.6 -88.8,138.2 -205,207.6 -348.3,207.6 l -526.2,-22.3 22.3,-1712 c 331,29.8 578,144.5 741.1,344.6 z m -911.4,1530.4 c 498.9,9.9 708.7,12.3 629.8,7.4 197.6,14.9 359.5,-64.3 485.4,-237.1 126,-173 189.1,-380.6 189.1,-622.5 0,-197.7 -45.8,-386.6 -137.2,-567 -91.5,-180.4 -233.4,-327.2 -426.1,-440.8 -192.7,-113.8 -432.5,-170.5 -718.9,-170.5 z m 377.9,-4231.6 -370.6,252.1 -7.3,1526.5 c 434.7,4.9 807.7,90.1 1119,255.7 311.2,165.4 547.1,377.9 707.7,637.4 160.5,259.4 240.9,527.3 240.9,804.1 0,241.9 -60.7,464.3 -181.6,666.9 -121.2,202.5 -300.2,363.1 -537.3,481.6 -237.2,118.7 -523.7,172.9 -859.6,163.1 l -837.4,-29.6 h -44.6 l -704,-29.7 14.8,-259.3 311.3,-237.2 363.1,-3964.7 -192.6,-185.3 37,-81.6 926.4,-59.2 z m -1030.1,-148.1 -125.9,259.3 222.1,214.9 -363.1,3831.4 -311.1,237.1 -29.7,481.7 867,29.8 h 44.6 l 837.4,29.5 c 370.4,9.9 685.5,-50.6 944.7,-181.5 259.4,-130.9 454.6,-308.9 585.5,-533.7 130.9,-224.7 196.4,-470.6 196.4,-737.3 0,-296.3 -79.1,-581.8 -237.2,-856 -158.1,-274 -392.7,-502.7 -704,-685.5 -311.2,-182.7 -686.6,-286.4 -1126.5,-311.2 l 7.6,-1304.3 400.1,-266.8 -74.1,-266.7 -1133.8,59.3" /></g><g
         transform="scale(2.08921)"
         id="g26"><path
           id="path28"
           style="fill:#ef2765;fill-opacity:1;fill-rule:nonzero;stroke:none"
           d="m 15102.9,12900 c 149.7,183.7 224.6,393.4 224.6,629.1 0,177 -40.9,328.8 -122.5,455.8 -81.6,126.8 -188.2,190.5 -319.7,190.5 l -482.9,-20.5 20.4,-1571.2 c 303.8,27.4 530.5,132.7 680.1,316.3 z m -836.4,1404.6 c 457.9,9 650.4,11.2 578.1,6.7 181.3,13.7 329.8,-59 445.4,-217.5 115.6,-158.8 173.5,-349.4 173.5,-571.4 0,-181.5 -42,-354.8 -125.9,-520.3 -83.9,-165.6 -214.2,-300.4 -391,-404.6 -176.9,-104.4 -396.9,-156.5 -659.8,-156.5 z m 346.8,-3883.7 -340.1,231.4 -6.7,1400.9 c 399,4.6 741.2,82.7 1027,234.7 285.7,151.8 502.1,346.8 649.5,585 147.3,238.1 221.1,484 221.1,738 0,222 -55.7,426.1 -166.7,612.1 -111.2,185.8 -275.5,333.2 -493.2,442 -217.6,108.9 -480.5,158.7 -788.8,149.6 l -768.6,-27.1 h -40.9 l -646.1,-27.3 13.6,-237.9 285.6,-217.7 333.3,-3638.8 -176.8,-170 34.1,-74.9 850.1,-54.3 z m -945.3,-135.9 -115.7,237.9 204,197.3 -333.3,3516.3 -285.5,217.7 -27.4,442 795.8,27.3 h 40.9 l 768.6,27.2 c 340,9 629.1,-46.5 867,-166.6 238.1,-120.2 417.2,-283.5 537.4,-489.8 120.1,-206.3 180.2,-431.9 180.2,-676.7 0,-272 -72.6,-533.9 -217.6,-785.6 -145.2,-251.5 -360.5,-461.4 -646.2,-629.1 -285.7,-167.8 -630.2,-262.9 -1033.8,-285.7 l 6.8,-1197 367.4,-244.9 -68.1,-244.8 -1040.5,54.5" /></g><g
         transform="scale(2.56434)"
         id="g30"><path
           id="path32"
           style="fill:#100f0d;fill-opacity:1;fill-rule:nonzero;stroke:none"
           d="m 15330.2,8440.25 16.7,33.3 -193.9,110.71 -38.9,1119.39 c 55.4,169.83 165.4,468.15 329.7,894.95 164.4,426.6 348.2,900.4 551.4,1421.3 l 193.9,33.2 v 22.2 l -725.8,199.5 88.6,-88.6 -587.4,-2022.6 -659.4,1806.4 194,182.9 -33.3,44.3 -1041.7,-88.7 v -5.5 l 249.3,-77.6 969.7,-2238.61 -5.4,-1235.71 -138.6,-105.25 5.5,-16.65 z m -964.1,38.76 160.7,127.48 5.5,1158.08 -936.5,2172.23 -249.3,77.5 -99.8,194 1274.5,99.8 133,-166.3 -216.1,-205 515.3,-1418.6 476.6,1634.7 -99.8,99.8 66.6,155 903.2,-243.8 v -199.4 l -227.2,-44.4 -365.7,-975.2 c -99.8,-273.5 -173.8,-462.8 -221.7,-568 -48,-105.3 -136.6,-265 -265.9,-479.24 l 44.2,-1246.79 216.1,-133.1 -72,-188.39 -980.8,-11.07 -60.9,160.7" /></g><g
         transform="scale(2.95991)"
         id="g34"><path
           id="path36"
           style="fill:#5e9cda;fill-opacity:1;fill-rule:nonzero;stroke:none"
           d="m 15683.8,8569.71 199.2,-79.19 295.6,121.42 c 0,0 121.4,100.31 110.5,281.73 -11.4,187.3 -137.1,266.93 -237.4,300.68 -19.3,-35.27 -35.8,-61.15 -35.8,-61.15 0,0 121.2,-216.45 93.1,-260.58 -28.1,-44.12 -248.8,6.25 -248.8,6.25 0,0 -182.7,-156.35 -228.9,-164.36 -46.2,-7.94 -78,246.86 -78,246.86 0,0 -198.6,106.53 -222.6,174.77 -11.8,33.38 99.5,89.33 196.5,118.55 0,0 58,276.02 95,288.19 37.1,12.19 213.7,-169.84 213.7,-169.84 0,0 98.4,15.54 175.9,19.5 16,65.3 15.6,140.74 -30,211.22 -114.2,176.56 -327.7,191.15 -327.7,191.15 0,0 75.4,182.14 -28.5,327.59 -103.8,145.4 -623,259.5 -623,259.5 20.4,-112.3 -39.7,-274.7 -219.4,-408.37 25.5,-21.52 43,-38 43,-38 0,0 235.4,78.67 273.4,42.77 38.1,-35.88 -52.6,-243.29 -52.6,-243.29 0,0 119.5,-208.72 118.7,-255.54 -0.8,-46.83 -257.1,-30.55 -257.1,-30.55 0,0 -141.8,-175.14 -213.3,-186.02 -35,-5.26 -69.1,114.54 -79.7,215.18 0,0 -114.1,47.6 -192.7,91.02 -32.3,-24.63 -63.5,-59.03 -90,-107.14 -114.2,-207.7 46.7,-377.95 46.7,-377.95 -93.5,-41.55 -167.5,-83.11 -166.1,-249.26 1.1,-148.99 106.7,-201.8 106.7,-201.8 l 274.6,-142.53 237.2,100.3 195.7,-126.69 224.3,100.31 213.9,-100.31 217.9,105.58" /></g><g
         transform="scale(2.79956)"
         id="g38"><path
           id="path40"
           style="fill:#ef2765;fill-opacity:1;fill-rule:nonzero;stroke:none"
           d="m 15951.9,8870.51 71.2,-1613.11 c 64.5,-1.97 133.5,-2.43 205.8,-0.68 l 71.1,1612.75 c -52.9,30.97 -174.4,72.83 -174.4,72.83 0,0 -100.5,-29.29 -173.7,-71.79" /></g><g
         transform="scale(2.87702)"
         id="g42"><path
           id="path44"
           style="fill:#ef2765;fill-opacity:1;fill-rule:nonzero;stroke:none"
           d="m 16300,8643.05 c -46.1,21.79 -164.3,78.86 -164.3,78.86 0,0 -97.8,-40.74 -181.9,-89.95 l -69.1,-1567.18 c 60.2,3.02 122.3,7.86 185.4,14.7 l 229.9,1563.57" /></g><g
         transform="scale(2.96113)"
         id="g46"><path
           id="path48"
           style="fill:#ef2765;fill-opacity:1;fill-rule:nonzero;stroke:none"
           d="m 16300,8430.58 c -28.6,27.73 -99.9,95.04 -99.9,95.04 0,0 -174.3,-83.15 -272.5,-123.37 l -222.4,-1512.43 c 32.5,4.6 65.1,9.7 97.8,15.57 l 497,1525.19" /></g><g
         transform="scale(2.91447)"
         id="g50"><path
           id="path52"
           style="fill:#ef2765;fill-opacity:1;fill-rule:nonzero;stroke:none"
           d="m 16282.9,9443.94 c 13.8,26.73 0.8,44.23 -28.8,38.87 l -137.9,-24.84 c -29.7,-5.38 -71.2,7.76 -92.4,29.1 l -98.7,99.54 c -21.1,21.3 -41.8,14.44 -45.9,-15.34 l -18.9,-138.89 c -4.1,-29.82 -29.4,-65.26 -56.3,-78.78 l -125.1,-63.14 c -26.9,-13.55 -26.7,-35.27 0.4,-48.38 l 126.2,-60.97 c 27.1,-13.07 53,-48.1 57.6,-77.82 l 21.3,-138.48 c 4.6,-29.78 25.4,-36.33 46.2,-14.61 l 97,101.18 c 20.8,21.75 62.1,35.58 91.7,30.71 l 138.4,-22.51 c 29.7,-4.84 42.3,12.9 28.1,39.43 l -66.3,123.48 c -14.2,26.49 -14.5,70.07 -0.8,96.8 l 64.2,124.65" /></g><g
         transform="scale(2.73563)"
         id="g54"><path
           id="path56"
           style="fill:#ef2765;fill-opacity:1;fill-rule:nonzero;stroke:none"
           d="m 16300,7431.17 -72.7,1648.47 c -89.2,45.91 -179.2,93.07 -179.2,93.07 0,0 -120,-38.57 -185.2,-80.46 l 242,-1645.62 c 56,-5.85 121.8,-11.44 195.1,-15.46" /></g><g
         transform="scale(2.68625)"
         id="g58"><path
           id="path60"
           style="fill:#ef2765;fill-opacity:1;fill-rule:nonzero;stroke:none"
           d="m 16054.6,9264.43 c -102.3,41.96 -252.9,133.61 -252.9,133.61 l -157.2,-104.76 547.8,-1681.26 c 0,0 39.1,-7.41 107.7,-16.57 l -245.4,1668.98" /></g><g
         transform="scale(2.74137)"
         id="g62"><path
           id="path64"
           style="fill:#ef2765;fill-opacity:1;fill-rule:nonzero;stroke:none"
           d="m 16232.2,10676.5 c 10.9,30.1 -5,46.8 -35.6,37.2 l -142.1,-44.7 c -30.5,-9.6 -76.1,-1.3 -101.3,18.4 l -117.4,91.8 c -25.2,19.7 -46.1,9.6 -46.3,-22.4 l -1.5,-149 c -0.3,-32 -22.2,-72.8 -48.7,-90.6 l -123.6,-83.3 c -26.5,-17.9 -23.4,-40.9 6.9,-51.1 l 141.3,-47.3 c 30.3,-10.2 62.3,-43.7 71.1,-74.4 l 41.1,-143.2 c 8.8,-30.8 31.5,-34.9 50.6,-9.2 l 88.7,119.7 c 19.1,25.7 60.8,45.8 92.8,44.7 l 148.9,-5.3 c 32,-1.1 42.9,19.3 24.3,45.3 l -86.4,121.4 c -18.5,26 -24.8,71.9 -13.8,102 l 51,140" /></g><g
         transform="scale(1.88527)"
         id="g66"><path
           id="path68"
           style="fill:#5e9cda;fill-opacity:1;fill-rule:nonzero;stroke:none"
           d="m 2727.29,13454.6 312.63,-124.3 464.19,190.6 c 0,0 190.6,157.5 173.39,442.4 -17.82,294 -215.24,419.1 -372.56,472 -30.36,-55.3 -56.29,-96 -56.29,-96 0,0 190.32,-339.8 146.16,-409.1 -44.16,-69.3 -390.61,9.8 -390.61,9.8 0,0 -286.88,-245.5 -359.38,-258 -72.46,-12.5 -122.54,387.6 -122.54,387.6 0,0 -311.71,167.2 -349.45,274.3 -18.42,52.5 156.36,140.3 308.51,186.2 0,0 91.12,433.3 149.26,452.4 58.12,19.2 335.38,-266.6 335.38,-266.6 0,0 154.55,24.4 276.25,30.6 25.05,102.5 24.44,221 -47.1,331.6 -179.35,277.2 -514.54,300.1 -514.54,300.1 0,0 118.37,286 -44.69,514.3 -163.03,228.3 -978.16,407.5 -978.16,407.5 32.05,-176.3 -62.36,-431.3 -344.48,-641.2 40.09,-33.8 67.55,-59.6 67.55,-59.6 0,0 369.47,123.4 429.27,67.1 59.79,-56.3 -82.63,-382 -82.63,-382 0,0 187.54,-327.7 186.36,-401.2 -1.28,-73.5 -403.7,-47.9 -403.7,-47.9 0,0 -222.58,-275 -334.85,-292.1 -54.9,-8.2 -108.52,179.8 -125.17,337.9 0,0 -179.089,74.7 -302.462,142.9 -50.73,-38.7 -99.71,-92.7 -141.253,-168.2 -179.397,-326.2 73.209,-593.4 73.209,-593.4 -146.742,-65.3 -262.872,-130.5 -260.819,-391.4 1.836,-233.9 167.607,-316.8 167.607,-316.8 l 431.078,-223.8 372.46,157.5 307.21,-198.9 352.18,157.5 335.79,-157.5 342.2,165.7" /></g><g
         transform="scale(1.53586)"
         id="g70"><path
           id="path72"
           style="fill:#ef2765;fill-opacity:1;fill-rule:nonzero;stroke:none"
           d="m 2198.95,16169.1 129.71,-2940.3 c 117.64,-3.6 243.4,-4.5 375.08,-1.3 l 129.66,2939.7 c -96.49,56.5 -317.88,132.8 -317.88,132.8 0,0 -183.29,-53.4 -316.57,-130.9" /></g><g
         transform="scale(1.53945)"
         id="g74"><path
           id="path76"
           style="fill:#ef2765;fill-opacity:1;fill-rule:nonzero;stroke:none"
           d="m 3646.95,16152.6 c -86.14,40.7 -307.02,147.4 -307.02,147.4 0,0 -182.84,-76.1 -339.94,-168.1 l -129.23,-2928.8 c 112.55,5.6 228.52,14.6 346.47,27.4 l 429.72,2922.1" /></g><g
         transform="scale(1.5488)"
         id="g78"><path
           id="path80"
           style="fill:#ef2765;fill-opacity:1;fill-rule:nonzero;stroke:none"
           d="m 4510.17,16118.3 c -54.72,53 -191,181.7 -191,181.7 0,0 -333.14,-159 -520.92,-235.9 l -425.23,-2891.5 c 62.06,8.7 124.4,18.5 186.95,29.7 l 950.2,2916" /></g><g
         transform="scale(1.71791)"
         id="g82"><path
           id="path84"
           style="fill:#ef2765;fill-opacity:1;fill-rule:nonzero;stroke:none"
           d="m 3594.45,16021.8 c 23.34,45.4 1.32,75 -48.86,66 l -234.04,-42.2 c -50.21,-9.1 -120.7,13.2 -156.62,49.4 l -167.42,168.9 c -35.92,36.1 -71.02,24.5 -77.93,-26.1 l -32.09,-235.6 c -6.98,-50.6 -49.83,-110.7 -95.46,-133.7 l -212.26,-107.1 c -45.65,-23 -45.3,-59.8 0.66,-82 l 214.11,-103.5 c 45.98,-22.2 89.93,-81.6 97.69,-132 l 36.2,-234.9 c 7.75,-50.6 43.01,-61.7 78.28,-24.8 l 164.54,171.6 c 35.28,36.9 105.36,60.4 155.76,52.1 l 234.7,-38.2 c 50.34,-8.2 71.75,21.9 47.67,66.9 l -112.45,209.5 c -24.07,45 -24.73,118.9 -1.41,164.2 l 108.93,211.5" /></g><g
         transform="scale(1.53945)"
         id="g86"><path
           id="path88"
           style="fill:#ef2765;fill-opacity:1;fill-rule:nonzero;stroke:none"
           d="m 2149.83,13205.3 -129.23,2929.3 c -158.47,81.6 -318.47,165.4 -318.47,165.4 0,0 -213.26,-68.5 -329.02,-143 l 430.06,-2924.3 c 99.6,-10.4 216.34,-20.3 346.66,-27.4" /></g><g
         transform="scale(1.5488)"
         id="g90"><path
           id="path92"
           style="fill:#ef2765;fill-opacity:1;fill-rule:nonzero;stroke:none"
           d="M 1191.6,16068.3 C 1014.26,16141 753.013,16300 753.013,16300 l -272.738,-181.7 950.095,-2916 c 0,0 67.92,-12.8 186.85,-28.7 l -425.62,2894.7" /></g><g
         transform="scale(1.81618)"
         id="g94"><path
           id="path96"
           style="fill:#ef2765;fill-opacity:1;fill-rule:nonzero;stroke:none"
           d="m 1771.54,16115.3 c 16.51,45.4 -7.61,70.6 -53.7,56.1 l -214.58,-67.4 c -46.05,-14.4 -114.82,-2 -152.82,27.7 l -177.28,138.6 c -37.98,29.7 -69.46,14.5 -69.91,-33.8 l -2.18,-224.9 c -0.42,-48.3 -33.57,-109.8 -73.56,-136.8 l -186.535,-125.7 c -39.99,-27 -35.293,-61.6 10.468,-77.1 l 213.237,-71.4 c 45.72,-15.4 94.02,-65.9 107.36,-112.3 l 61.93,-216.2 c 13.3,-46.4 47.67,-52.7 76.45,-13.9 l 133.87,180.7 c 28.8,38.8 91.78,69.2 140,67.5 l 224.76,-8 c 48.3,-1.7 64.84,29.1 36.83,68.4 l -130.45,183.3 c -28,39.2 -37.43,108.5 -20.88,153.9 l 76.99,211.3" /></g><g
         transform="scale(2.36084)"
         id="g98"><path
           id="path100"
           style="fill:#5e9cda;fill-opacity:1;fill-rule:nonzero;stroke:none"
           d="M 12885.4,15588.3 13149,15267 c 56.7,-69 82.7,-195.5 58,-281.2 l -115.2,-399.4 c -24.8,-85.7 22.9,-129.3 106,-96.8 l 387.1,151.6 c 83,32.4 211.4,18 285.3,-31.9 l 344.3,-233 c 73.8,-50 130,-18 124.7,71 l -24.4,414.9 c -5.4,89 48,206.8 118.4,261.6 l 327.9,255.4 c 70.4,54.8 57.3,118 -28.9,140.5 l -402.2,105 c -86.4,22.5 -181.8,109.6 -212.1,193.5 l -141.7,390.8 c -30.3,83.9 -94.4,91 -142.5,15.9 l -224.2,-350.1 c -48,-75.2 -160.3,-139.1 -249.5,-142 l -415.3,-13.8 c -89.2,-3 -116,-61.8 -59.3,-130.7" /></g><g
         transform="scale(2.36084)"
         id="g102"><path
           id="path104"
           style="fill:#5e9cda;fill-opacity:1;fill-rule:nonzero;stroke:none"
           d="m 6194.37,15379.2 327.9,-255.4 c 70.44,-54.8 123.68,-172.6 118.43,-261.6 l -24.4,-414.9 c -5.42,-89 50.79,-121 124.62,-71 l 344.37,233 c 73.83,49.9 202.21,64.3 285.24,31.9 l 387.19,-151.6 c 83.02,-32.5 130.63,11.1 105.94,96.8 l -115.22,399.4 c -24.69,85.7 1.36,212.2 57.9,281.2 l 263.73,321.3 c 56.58,68.9 29.86,127.7 -59.22,130.7 l -415.4,13.8 c -89.17,2.9 -201.54,66.8 -249.49,142 l -224.2,350.1 c -48.16,75.1 -112.29,68 -142.62,-15.9 l -141.6,-390.8 c -30.25,-83.9 -125.72,-171 -212.05,-193.5 l -402.19,-105 c -86.28,-22.5 -99.37,-85.7 -28.93,-140.5" /></g><g
         transform="scale(2.49454)"
         id="g106"><path
           id="path108"
           style="fill:#ef2765;fill-opacity:1;fill-rule:nonzero;stroke:none"
           d="m 8996.13,15380.7 338.34,-287.4 c 72.6,-61.7 124.19,-189.7 114.49,-284.4 l -44.86,-441.7 c -9.62,-94.8 48.83,-131.4 129.84,-81.4 l 377.91,233.2 c 81.17,49.9 218.75,59.4 305.95,21 l 406.2,-179.2 c 87.2,-38.5 139.9,5.8 117.4,98.4 l -104.8,431.4 c -22.5,92.6 11,226.4 74.6,297.4 l 295.8,331 c 63.5,70.9 37.6,134.8 -57.2,142.1 l -442.7,33.5 c -95,7.2 -212,80.5 -259.8,162.9 l -223.4,383.6 c -47.95,82.3 -116.7,77.6 -152.9,-10.5 L 9702.31,15820 c -36.2,-88.2 -141.91,-176.8 -235.15,-196.9 l -433.83,-93.8 c -93,-20.1 -109.88,-87 -37.2,-148.6" /></g><g
         transform="scale(1.14094)"
         id="g110"><path
           id="path112"
           style="fill:#100f0d;fill-opacity:1;fill-rule:nonzero;stroke:none"
           d="m 1909.39,7288.43 c 614.84,0 1073.97,93.44 1377.11,280.65 303.14,187.13 454.85,422.54 454.85,706.25 0,279.69 -157.99,491.44 -474.28,635.36 -315.99,144 -744.84,216.31 -1286.82,216.31 -266.57,0 -400,-101.15 -400,-303.44 V 7604.49 c 0,-210.62 109.72,-316.06 329.14,-316.06 z M 1735.11,10017 c 146.28,0 334.27,123.7 564.55,371.1 230,247.1 452.57,594.3 667.71,1041.7 279.42,589.2 419.13,1204 419.13,1844.8 0,365.4 -56,698.9 -167.71,1000 -167.71,442.9 -438.57,739.4 -812.84,890 -176.28,68.8 -378.28,103.1 -606.28,103.1 -146.28,-4.2 -219.42,-75.1 -219.42,-212.8 v -4908.7 c 0,-86 51.71,-129.2 154.86,-129.2 z M 1231.97,6256.48 C 410.563,6256.48 0,6697.08 0,7578.72 v 7598.68 c 0,748.3 395.708,1122.6 1186.83,1122.6 821.41,0 1545.97,-217.1 2173.95,-651.4 735.42,-507.7 1103.13,-1277.4 1103.13,-2309.4 0,-1260.3 -400,-2281.3 -1199.98,-3064.2 -128.85,-128.8 -193.42,-230 -193.42,-303.18 0,-68.8 83.71,-124.54 251.42,-167.66 369.99,-98.87 675.13,-242.87 915.98,-432.01 391.42,-301.16 587.13,-673.13 587.13,-1116.01 0,-546.21 -325.71,-1015.91 -977.4,-1409.62 -651.42,-393.45 -1523.41,-590.04 -2615.67,-590.04" /></g><g
         transform="scale(1.13326)"
         id="g114"><path
           id="path116"
           style="fill:#ef2765;fill-opacity:1;fill-rule:nonzero;stroke:none"
           d="M 7838.61,6415.72 H 5656.53 c -320.72,0 -480.66,112.41 -480.66,337.69 0,285.64 173.17,428.59 519.5,428.59 116.78,0 199.05,17.21 246.79,52.06 47.46,34.5 71.34,90.89 71.34,168.81 v 7916.63 c 0,142.9 -69.32,218.5 -207.67,227.2 -195.03,8.6 -329.07,32.5 -402.71,71.3 -151.59,78 -227.25,201.4 -227.25,370.2 0,207.9 173.17,311.8 519.5,311.8 h 2207.95 c 346.33,0 519.78,-103.9 519.78,-311.8 0,-168.8 -75.94,-292.2 -227.53,-370.2 -77.95,-38.8 -220.62,-62.7 -428.59,-71.3 -121.1,-8.7 -181.79,-67.1 -181.79,-175.5 V 7350.8 c 0,-108.09 54.07,-166.51 162.52,-175.15 185.82,-8.91 315.83,-34.77 389.47,-77.92 147.27,-82.33 220.91,-205.69 220.91,-370.26 0,-207.98 -173.16,-311.75 -519.48,-311.75" /></g><g
         transform="scale(1.14094)"
         id="g118"><path
           id="path120"
           style="fill:#100f0d;fill-opacity:1;fill-rule:nonzero;stroke:none"
           d="m 11056.4,10017 c 171.9,0 406.2,167.7 703.1,503.1 296.6,335.5 518.2,731.2 664.2,1187.1 172,511.7 258.1,1034 258.1,1567.4 0,365.4 -55.8,700.8 -167.8,1006.3 -249.4,658 -722.3,986.8 -1419.1,986.8 -150.5,-4.2 -225.7,-75.1 -225.7,-212.8 V 10243 c 0,-150.8 62.3,-226 187.2,-226 z m 2186.7,-3760.52 c -292.5,0 -595.7,247.17 -909.6,741.75 -339.8,515.98 -752.6,1184.82 -1238.6,2006.24 -90.2,111.66 -146,167.66 -167.7,167.66 -38.6,0 -58,-77.38 -58,-232.26 V 7333.66 c 0,-718.35 -273.2,-1077.18 -819.1,-1077.18 -240.86,0 -414.05,54.87 -519.49,164.34 -105.35,109.64 -170.82,250.49 -196.5,422.54 -26.03,171.97 -38.92,352.52 -38.92,542.01 v 7792.03 c 0,748.3 374.34,1122.6 1122.61,1122.6 860,0 1606.3,-215.2 2238.2,-645.2 735.4,-507.4 1103.1,-1279.3 1103.1,-2315.6 0,-752.5 -129.1,-1440.8 -387.1,-2064.2 -309.4,-748.3 -780.6,-1322.28 -1412.5,-1722.3 -34.6,-21.74 -51.7,-47.42 -51.7,-77.39 0,-43.13 152.6,-245.15 457.9,-606.25 116.3,-137.78 223.8,-271.19 322.6,-400.03 731.1,-928.88 1096.6,-1500.86 1096.6,-1715.94 0,-159.17 -48.3,-281.7 -145.2,-367.77 -96.5,-85.98 -228.9,-128.84 -396.6,-128.84" /></g><g
         transform="scale(1.28637)"
         id="g122"><path
           id="path124"
           style="fill:#ef2765;fill-opacity:1;fill-rule:nonzero;stroke:none"
           d="m 14972.7,6504.59 c 0,-637.14 -242.3,-955.4 -726.5,-955.4 -213.7,0 -366.2,49.44 -457.7,148.79 -65.1,64.6 -112.8,142.88 -143.2,234.38 -45.6,133.56 -68.6,339.56 -68.6,618.1 v 6854.14 c 0,91.5 -43.9,137.1 -131.6,137.1 h -623.7 c -186.9,0 -328.9,38.3 -426.1,114.6 -97.3,76.2 -146,160.1 -146,251.6 0,141.1 46.9,244.3 140.2,309.2 93.4,64.6 205,104.6 334.7,120.1 129.7,15.1 247.8,22.8 354.7,22.8 h 2391.5 c 106.9,0 225,-7.7 354.8,-22.8 129.7,-15.5 241.2,-55.5 334.7,-120.1 93.5,-64.9 140.1,-168.1 140.1,-309.2 0,-91.5 -48.7,-175.4 -145.9,-251.6 -97.1,-76.3 -239.3,-114.6 -426.3,-114.6 H 15110 c -91.4,0 -137.3,-45.6 -137.3,-137.1 V 6504.59" /></g><g
         transform="scale(1.6801)"
         id="g126"><path
           id="path128"
           style="fill:#100f0d;fill-opacity:1;fill-rule:nonzero;stroke:none"
           d="m 15927.6,4248.72 c -125.5,0 -210.8,48.93 -256.1,146.72 -45.3,97.73 -67.9,235.7 -67.9,414.02 v 1073.15 c 0,102.26 -61.3,153.26 -184.1,153.26 l -1371,-4.28 c -119.8,0 -179.6,-49.64 -179.6,-148.98 v -902.38 c 0,-192.67 -32.2,-349.09 -96.4,-468.78 -93.6,-175.23 -248.2,-262.73 -464.3,-262.73 -160.7,0 -275.9,37.86 -346.1,113.92 -55.6,55.3 -96.3,125.53 -122.7,210.11 -29.1,105.17 -43.8,252.6 -43.8,442.59 v 5291.56 c 0,125.5 10.3,246.8 30.6,363.6 41,265.8 201.6,398.7 482,398.7 192.6,0 334.3,-65 424.9,-195 90.4,-130 135.8,-307.4 135.8,-532.2 V 6811.18 c 0,-131.36 59.8,-197.13 179.6,-197.13 l 1371,4.47 c 122.8,0 184.1,64.22 184.1,192.66 v 3697.32 c 0,181 22.6,319.7 67.9,416.1 45.3,96.5 130.6,144.6 256.1,144.6 248.4,0 372.4,-187 372.4,-560.7 V 4809.46 c 0,-373.9 -124,-560.74 -372.4,-560.74" /></g><g
         transform="scale(2.18221)"
         id="g130"><path
           id="path132"
           style="fill:#ef2765;fill-opacity:1;fill-rule:nonzero;stroke:none"
           d="m 14536.1,3834.33 c 231.6,0 439.5,94.4 623.8,283.33 155.2,157.32 282.2,357.48 381.2,600.22 143.9,339.57 215.9,710.47 215.9,1113.05 0,535.05 -85.4,988.13 -256.3,1359.17 -92.4,204.52 -203.6,364.22 -333.9,478.92 -175.4,159.56 -365.4,239.48 -570,239.48 -137.2,0 -205.7,-58.56 -205.7,-175.37 V 4006.4 c 0,-114.75 48.2,-172.07 145,-172.07 z m -475.6,-563.19 c -330.4,0 -495.8,196.72 -495.8,590.22 v 4074 c 0,391.25 165.4,586.92 495.8,586.92 487.9,0 903.9,-113.51 1247.9,-340.57 661,-438.59 991.6,-1238.97 991.6,-2401.42 0,-517.18 -91.1,-963.38 -273.2,-1338.92 -155.2,-319.22 -369.9,-575.56 -644.1,-768.99 -377.8,-267.53 -818.5,-401.24 -1322.2,-401.24" /></g><g
         transform="scale(2.6265)"
         id="g134"><path
           id="path136"
           style="fill:#100f0d;fill-opacity:1;fill-rule:nonzero;stroke:none"
           d="m 15532.1,4222.54 c 78.6,0 117.8,38.23 117.8,114.8 0,18.73 -28,212.1 -84.1,580.09 -155,986.33 -279.3,1479.53 -372.7,1479.53 -63.5,0 -181.2,-489.51 -353,-1468.34 -67.3,-382.91 -100.9,-582.83 -100.9,-599.58 0,-71.01 39.2,-106.5 117.6,-106.5 z m -931.7,-774.83 c -14,-118.64 -26.5,-223.76 -37.7,-315.25 -31.9,-276.53 -171,-414.66 -417.6,-414.66 -209.2,0 -313.8,110.23 -313.8,330.63 0,52.28 16.8,208.76 50.4,469.41 33.6,260.5 85.9,612.22 157,1054.94 119.5,751 260.5,1373.89 423.1,1868.99 138.1,425.93 331.5,638.92 579.9,638.92 201.9,0 367.2,-116.78 496.1,-350.24 80.3,-149.56 157.8,-363.41 232.5,-641.77 199.9,-743.42 367.1,-1628.98 501.6,-2656.35 18.7,-134.55 28.1,-244.78 28.1,-330.63 0,-102.76 -11.3,-183.21 -33.6,-241.05 -37.5,-95.29 -109.4,-142.85 -215.9,-142.85 -128.8,0 -203.6,87.76 -224.1,263.36 -26.2,244.77 -56.1,494.12 -89.6,748.14 -11.3,89.74 -66.4,134.55 -165.4,134.55 h -781.8 c -87.8,0 -139.2,-48.65 -154.1,-145.7 -9.4,-61.68 -21.1,-151.8 -35.1,-270.44" /></g><g
         transform="scale(2.98409)"
         id="g138"><path
           id="path140"
           style="fill:#ef2765;fill-opacity:1;fill-rule:nonzero;stroke:none"
           d="m 15274,2392.12 c -92.2,0 -158.2,20.98 -198.6,62.83 -40.3,41.92 -65.3,95.78 -75.2,161.56 -9.8,65.75 -14.8,134.78 -14.8,207.23 v 601.79 c 0,111.73 -27.1,205.46 -81.4,281.06 -90.4,126.6 -175.9,298.45 -256.5,515.5 -108.5,291.01 -198.1,589.89 -268.8,896.52 -70.7,306.63 -106.1,534.83 -106.1,684.36 0,70.68 5.4,138.97 16.1,204.72 10.7,65.78 36.2,119.63 76.5,161.56 40.2,41.95 105.6,62.93 196,62.93 82.2,0 144.7,-19.77 187.5,-59.21 67.4,-62.47 110.1,-179.25 128.3,-350.23 14.7,-126.6 48.8,-322.24 102.3,-586.91 53.3,-264.8 117.9,-524.58 193.6,-779.43 93.7,-318.96 167.6,-478.47 221.9,-478.47 23,0 44.4,21.31 64.2,64.14 80.5,175.86 148.8,369.99 204.7,582.02 123.3,465.36 198,924.03 224.3,1376.29 1.7,36.03 9.1,72.32 22.3,108.48 31.2,82.14 88,123.32 170.1,123.32 64.1,0 111.9,-16.49 143.1,-49.36 31.3,-32.91 51.8,-75.17 61.7,-126.94 9.9,-51.91 14.8,-104.89 14.8,-159.18 0,-279.55 -61.7,-629.74 -184.9,-1050.64 -108.6,-366.61 -256.6,-725.14 -444,-1075.33 -55.9,-101.94 -83.9,-210.42 -83.9,-325.56 v -641.2 c 0,-274.66 -104.4,-411.85 -313.2,-411.85" /></g><g
         transform="scale(1.54534)"
         id="g142"><path
           id="path144"
           style="fill:#5e9cda;fill-opacity:1;fill-rule:nonzero;stroke:none"
           d="m 14543.6,3.68801 c 85.8,17.40619 140.6,134.01699 338.9,700.68899 53.7,151.423 104.5,294.758 115.3,318.893 l 18.7,44.2 498.4,-2.72 c 521.1,-2.65 605.5,4.01 687.3,54.94 76.3,46.92 97.8,152.72 45.5,219.76 -16,20.06 -133.9,116.54 -265.2,215.68 -363.1,277.28 -569.4,436.73 -581.5,447.47 -5.3,5.38 2.7,40.19 18.8,76.36 14.7,36.18 117.8,288.03 227.7,560.01 198.3,487.66 201,495.69 191.6,569.39 -16.1,133.95 -127.3,202.29 -219.7,137.96 -33.5,-22.77 -519.9,-428.71 -807.9,-673.9 l -143.3,-121.91 -64.3,50.93 c -34.8,28.15 -159.5,129.94 -277.3,226.42 -234.5,192.9 -306.8,245.19 -407.3,294.76 -127.3,64.32 -238.5,34.81 -270.6,-71.05 -16.1,-56.24 14.7,-211.67 164.7,-825.26 l 81.8,-334.94 -192.9,-179.51 c -416.7,-391.18 -542.6,-537.23 -557.4,-647.11 -6.7,-45.56 -1.3,-57.59 40.2,-99.136 33.5,-33.455 58.9,-46.852 88.4,-46.852 24.1,0 197,24.072 387.2,52.223 188.9,29.505 368.4,54.935 397.9,57.595 l 53.6,4.01 21.4,-93.765 c 12.1,-52.224 53.6,-233.091 92.5,-401.92 38.8,-170.124 81.7,-338.956 95.1,-376.422 42.8,-113.8938 129.9,-176.8553 222.4,-156.79499" /></g><g
         transform="scale(1.8945)"
         id="g146"><path
           id="path148"
           style="fill:#ef2765;fill-opacity:1;fill-rule:nonzero;stroke:none"
           d="m 14911,247.821 c 18.6,5.437 46,21.854 60.2,36.054 28.3,28.399 127.8,253.522 211.9,481.922 29.5,77.593 55.8,145.368 59,149.747 3.4,3.275 105,13.093 225.2,19.638 242.6,13.144 607.6,49.195 683,66.668 63.4,14.2 119.1,49.19 132.2,83.08 17.5,45.87 12.1,98.34 -15.3,127.84 -13.1,15.31 -112.5,80.87 -220.7,146.43 -108.2,64.5 -265.6,161.73 -350.8,214.2 l -154.1,97.28 65.5,154.08 c 148.7,354.08 219.7,546.42 218.6,596.67 -1.1,74.32 -13.1,114.76 -46.9,155.19 -26.3,30.62 -37.2,36.05 -77.6,36.05 -42.7,0 -60.2,-9.82 -160.7,-85.24 -62.3,-46.98 -220.8,-173.77 -351.9,-281.93 -131.1,-107.1 -241.5,-195.62 -244.8,-195.62 -3.3,0 -47,26.24 -96.2,57.91 -316.9,204.38 -375.8,241.54 -448,275.37 -43.7,20.8 -95.1,38.27 -115.8,38.27 -86.4,0 -143.2,-72.15 -124.6,-156.29 20.8,-90.69 165,-626.18 182.5,-673.16 8.7,-26.23 16.4,-53.53 16.4,-61.18 0,-8.76 -87.5,-95.12 -193.4,-193.45 -415.3,-381.372 -440.5,-410.878 -440.5,-498.343 0,-38.215 6.6,-53.523 31.7,-79.756 41.6,-41.541 77.6,-41.541 290.7,1.109 158.5,30.561 454.7,76.484 497.3,76.484 15.3,0 24,-15.308 38.2,-63.393 124.6,-444.763 197.8,-562.787 328.9,-525.63" /></g><g
         transform="scale(2.23452)"
         id="g150"><path
           id="path152"
           style="fill:#5e9cda;fill-opacity:1;fill-rule:nonzero;stroke:none"
           d="m 15291,234.19 c 26,6.489 68.6,48.198 83.4,81.538 6.5,14.812 56.5,126.022 109.4,245.513 l 97.2,217.764 322.4,4.61 c 291,4.654 326.2,6.489 347.5,21.301 33.3,22.244 49.1,63.014 41.7,103.782 -7.4,36.16 -4.6,33.384 -290.9,264.082 -119.6,96.35 -177.9,148.22 -174.2,157.49 1.8,7.43 41.7,101 88.9,208.45 144.6,328.93 240.9,581.87 243.7,632.85 2.8,58.35 -14.8,89.86 -60.2,108.39 -64.9,25.95 -48.2,38.93 -615.2,-499.4 l -106.6,-101 -43.5,41.71 c -65.8,63.95 -159.4,139.89 -294.7,240.9 -182.5,136.18 -248.3,164.91 -302.9,136.18 -28.8,-15.75 -51.9,-46.32 -57.5,-77.82 -6.5,-32.4 79.7,-377.09 156.6,-625.42 l 50,-162.14 -47.2,-41.66 c -232.6,-202.909 -273.3,-251.107 -282.6,-329.871 -5.6,-50.034 10.2,-83.374 47.2,-102.842 23.2,-12.037 48.2,-12.037 177,-3.713 81.6,5.594 166.8,12.084 187.2,14.858 38,3.669 38.9,3.669 45.4,-30.61 13.9,-75.051 88,-317.788 115.8,-378.024 33.3,-73.172 57.4,-102.843 99.1,-120.429 31.5,-13.919 32.4,-13.919 63,-6.489" /></g><g
         transform="scale(1.18702)"
         id="g154"><path
           id="path156"
           style="fill:#ef2765;fill-opacity:1;fill-rule:nonzero;stroke:none"
           d="m 14466.9,463.511 c 62.8,24.431 101.2,99.408 233.7,458.71 139.6,376.739 141.3,378.509 275.7,378.509 34.8,0 197,19.21 359.2,43.55 162.2,24.44 408.2,55.86 546,69.84 259.8,27.89 331.3,50.55 378.4,116.85 40.1,55.77 34.9,156.95 -10.4,214.49 -59.4,76.74 -352.4,301.76 -666.3,514.56 -160.4,108.09 -293,202.27 -298.3,209.26 -3.4,5.22 38.5,134.29 96,284.33 132.5,350.54 270.3,765.69 296.4,891.22 17.5,85.51 15.8,106.4 -12.2,163.93 -20.9,41.88 -55.7,76.75 -97.6,97.73 -115.1,55.77 -148.3,34.88 -655.8,-415.15 l -462.2,-409.85 -104.6,74.97 c -153.5,109.94 -457,294.77 -596.6,362.84 -303.4,151.73 -448.2,169.17 -512.7,61 -47.1,-74.98 -43.6,-136.06 13.9,-310.44 28,-80.2 108.2,-331.42 177.9,-559.89 l 127.3,-411.62 -120.3,-109.85 c -209.3,-190.14 -521.4,-514.57 -580.7,-601.76 -29.7,-47.09 -59.4,-104.63 -64.6,-129.06 -5.3,-24.43 -21,-64.53 -34.9,-90.65 -52.4,-95.95 -13.9,-219.79 80.2,-258.21 45.4,-19.12 104.7,-15.67 371.6,13.99 174.3,20.97 392.4,41.87 483.1,48.86 90.6,5.22 181.4,12.22 200.5,15.67 31.4,6.99 45.4,-19.21 111.6,-197.049 167.5,-444.809 233.8,-545.988 364.6,-542.447 34.8,0 81.9,6.989 101.1,15.667" /></g><g
         transform="scale(2.5852)"
         id="g158"><path
           id="path160"
           style="fill:#ef2765;fill-opacity:1;fill-rule:nonzero;stroke:none"
           d="m 15364.6,346.588 c 38.5,7.194 63.3,45.644 142.6,223.425 l 78.5,177.781 56.8,4.796 c 31.2,2.4 132.2,8.82 225,12.844 277.2,12.804 370,34.426 410.1,95.271 21.6,32.029 22.4,48.856 5.6,85.682 -14.4,29.668 -28,38.449 -345.2,220.253 -80.1,45.64 -145.7,86.49 -146.5,89.7 0,7.2 60.8,180.99 126.5,357.96 48.1,131.33 63.3,203.43 50.5,242.65 -13.7,39.26 -41.7,63.29 -82.5,67.27 -30.5,3.21 -40.9,-0.77 -86.5,-29.63 -28.9,-19.22 -100.9,-80.07 -160.2,-135.35 -95.3,-88.89 -217,-199.4 -269.9,-244.23 -17.6,-14.43 -18.4,-14.43 -44,1.58 -14.4,8.82 -84.1,47.27 -154.6,85.72 -70.4,38.41 -148.9,82.47 -174.6,97.67 -85.6,51.26 -136.9,56.87 -178.6,17.64 -36.8,-34.43 -34.4,-47.27 53.7,-305.12 l 81.7,-240.25 -15.2,-25.65 c -8,-14.39 -58.5,-64.87 -111.3,-112.91 -133,-120.918 -186.6,-177.78 -209,-221.838 -28.1,-54.464 -25.7,-88.08 8,-124.904 24,-25.647 32,-29.63 62.4,-28.856 30.4,0.811 336.4,36.864 391.6,46.456 19.2,3.984 21.6,0 50.5,-81.696 60,-168.149 107.3,-245.861 165,-269.07 32.8,-12.803 37.6,-13.614 69.6,-7.194" /></g><path
         id="path162"
         style="fill:#5e9cda;fill-opacity:1;fill-rule:nonzero;stroke:none"
         d="m 12125.1,941.5 c 84.9,55.898 116,105.6 306.4,521.7 l 159.5,343.7 240.1,35.2 c 132.5,18.6 407.9,58 612.8,84.9 509.3,72.5 610.8,128.4 610.8,333.3 0,66.3 -14.5,93.2 -99.4,171.9 -78.7,76.6 -683.2,521.7 -786.7,579.7 -26.9,14.4 107.6,354 393.3,997.9 49.7,109.7 41.5,173.9 -31,256.7 -64.2,74.5 -167.7,86.9 -283.6,35.2 -51.8,-22.8 -283.7,-196.7 -517.6,-387.2 -234,-190.4 -434.8,-349.9 -447.2,-356.1 -12.4,-4.1 -225.7,105.6 -472.1,244.3 -544.5,304.4 -687.3,360.3 -879.9,339.6 -74.5,-8.3 -159.4,-27 -190.4,-41.4 -58,-31.1 -101.5,-109.8 -101.5,-186.4 0,-47.6 207.1,-662.5 374.8,-1105.5 l 82.8,-219.5 -49.7,-41.4 c -590.1,-492.7 -635.6,-540.4 -726.7,-745.3 -51.8,-116 -53.8,-132.5 -29,-207.1 18.6,-60 47.6,-93.1 101.5,-122.1 l 72.4,-39.3 455.5,86.9 c 248.4,49.7 472,93.2 494.8,97.3 35.2,8.3 49.7,-12.4 91.1,-120.1 78.7,-211.1 205,-438.9 281.6,-513.4 91.1,-89 233.9,-107.703 337.4,-43.5" /><path
         id="path164"
         style="fill:#ef2765;fill-opacity:1;fill-rule:nonzero;stroke:none"
         d="m 7665.62,1175.5 c 57.97,60 190.47,244.3 296.06,409.9 103.52,165.6 204.97,320.9 223.6,345.7 31.05,43.5 49.69,47.7 244.3,47.7 293.99,0 900.6,39.3 989.62,62.1 138.71,37.2 209.11,163.5 163.56,298.1 -18.63,60 -78.67,118 -296.06,285.7 -149.06,115.9 -335.39,250.5 -412,300.2 -78.67,49.7 -140.78,97.3 -140.78,105.6 0,6.2 45.55,89 101.45,180.1 55.89,91.1 182.19,310.6 279.49,486.5 196.68,352 213.25,424.5 136.64,550.8 -107.65,171.8 -316.76,138.7 -693.56,-116 -231.88,-155.3 -763.96,-482.4 -786.73,-482.4 -22.77,0 -289.85,165.6 -664.58,412 -376.8,250.5 -556.92,314.7 -695.63,248.5 -86.95,-41.5 -140.78,-128.4 -140.78,-231.9 0,-89 99.37,-432.7 250.51,-857.1 80.74,-236.1 99.37,-304.4 76.6,-316.8 -14.49,-8.3 -217.39,-128.4 -451.34,-265 -233.95,-136.7 -445.12,-273.3 -469.96,-304.3 -68.32,-82.9 -80.75,-176 -33.13,-256.8 70.39,-122.1 82.82,-124.2 703.92,-109.7 l 563.13,10.4 105.59,-325.1 c 60.04,-180.1 126.29,-358.2 149.06,-395.4 68.32,-113.9 192.54,-190.5 302.27,-190.5 86.95,0 103.52,8.3 198.75,107.7" /></g></g></svg>